<svg width="1983" height="492" viewBox="0 0 1983 492" fill="none" xmlns="http://www.w3.org/2000/svg">
<path d="M732.488 130.744L650.816 361H580.624L498.952 130.744H558.648L615.72 304.584L673.12 130.744H732.488ZM812.018 130.744V361H755.93V130.744H812.018ZM935.976 363.296C919.139 363.296 904.051 360.563 890.712 355.096C877.373 349.629 866.659 341.539 858.568 330.824C850.696 320.109 846.541 307.208 846.104 292.12H905.8C906.675 300.648 909.627 307.208 914.656 311.8C919.685 316.173 926.245 318.36 934.336 318.36C942.645 318.36 949.205 316.501 954.016 312.784C958.827 308.848 961.232 303.491 961.232 296.712C961.232 291.027 959.264 286.325 955.328 282.608C951.611 278.891 946.909 275.829 941.224 273.424C935.757 271.019 927.885 268.285 917.608 265.224C902.739 260.632 890.603 256.04 881.2 251.448C871.797 246.856 863.707 240.077 856.928 231.112C850.149 222.147 846.76 210.448 846.76 196.016C846.76 174.587 854.523 157.859 870.048 145.832C885.573 133.587 905.8 127.464 930.728 127.464C956.093 127.464 976.539 133.587 992.064 145.832C1007.59 157.859 1015.9 174.696 1016.99 196.344H956.312C955.875 188.909 953.141 183.115 948.112 178.96C943.083 174.587 936.632 172.4 928.76 172.4C921.981 172.4 916.515 174.259 912.36 177.976C908.205 181.475 906.128 186.613 906.128 193.392C906.128 200.827 909.627 206.621 916.624 210.776C923.621 214.931 934.555 219.413 949.424 224.224C964.293 229.253 976.32 234.064 985.504 238.656C994.907 243.248 1003 249.917 1009.78 258.664C1016.55 267.411 1019.94 278.672 1019.94 292.448C1019.94 305.568 1016.55 317.485 1009.78 328.2C1003.22 338.915 993.595 347.443 980.912 353.784C968.229 360.125 953.251 363.296 935.976 363.296ZM1109.57 130.744V268.504C1109.57 282.28 1112.95 292.885 1119.73 300.32C1126.51 307.755 1136.46 311.472 1149.58 311.472C1162.7 311.472 1172.76 307.755 1179.76 300.32C1186.75 292.885 1190.25 282.28 1190.25 268.504V130.744H1246.34V268.176C1246.34 288.731 1241.97 306.115 1233.22 320.328C1224.47 334.541 1212.67 345.256 1197.8 352.472C1183.15 359.688 1166.75 363.296 1148.6 363.296C1130.45 363.296 1114.16 359.797 1099.73 352.8C1085.51 345.584 1074.25 334.869 1065.94 320.656C1057.63 306.224 1053.48 288.731 1053.48 268.176V130.744H1109.57ZM1546.49 130.744V361H1490.4V222.912L1438.9 361H1393.64L1341.81 222.584V361H1285.73V130.744H1351.98L1416.6 290.152L1480.56 130.744H1546.49ZM1642.91 175.68V222.256H1718.02V265.552H1642.91V316.064H1727.86V361H1586.82V130.744H1727.86V175.68H1642.91ZM1850.54 130.744C1874.81 130.744 1896.02 135.555 1914.17 145.176C1932.32 154.797 1946.31 168.355 1956.15 185.848C1966.21 203.123 1971.24 223.131 1971.24 245.872C1971.24 268.395 1966.21 288.403 1956.15 305.896C1946.31 323.389 1932.21 336.947 1913.84 346.568C1895.69 356.189 1874.59 361 1850.54 361H1764.27V130.744H1850.54ZM1846.93 312.456C1868.14 312.456 1884.65 306.661 1896.46 295.072C1908.27 283.483 1914.17 267.083 1914.17 245.872C1914.17 224.661 1908.27 208.152 1896.46 196.344C1884.65 184.536 1868.14 178.632 1846.93 178.632H1820.36V312.456H1846.93Z" fill="black"/>
<path d="M10.1215 183.728C52.8078 60.9792 190.837 5.91276 306.298 64.5178C379.342 101.593 427.386 180.851 417.809 265.021C407.782 353.141 357.686 412.388 274.478 440.977C152.862 482.763 21.2183 401.137 2.04937 273.967C-2.54091 243.514 0.763839 213.644 10.1215 183.728ZM386.292 168.102C344.902 83.6469 256.365 41.3172 163.99 61.8188C58.4742 85.237 -7.27788 195.374 22.9338 298.094C49.9948 390.1 141.966 447.673 239.43 433.619C364.813 415.54 437.49 285.124 386.292 168.102Z" fill="#9307FF"/>
<path d="M305.888 387.14C282.972 402.297 258.321 411.132 231.78 415.06C225.966 415.92 222.102 415.031 218.275 409.66C196.854 379.595 174.902 349.907 151.882 318.38C189.008 335.474 223.138 334.725 255.622 308.714C245.505 300.898 236.011 293.502 226.449 286.195C217.006 278.978 207.443 271.917 198.038 264.65C194.59 261.986 191.841 261.053 187.307 263.436C177.661 268.508 167.234 265.69 161.317 257.588C155.422 249.515 155.701 238.894 162.006 231.358C168.489 223.608 178.455 222.058 188.525 226.651C190.639 227.615 194.353 227.735 196.077 226.499C228.984 202.886 261.896 179.264 294.172 154.807C297.468 152.31 296.72 144.477 297.861 139.065C272.063 128.09 247.586 117.513 222.897 107.461C220.753 106.588 216.778 108.57 214.384 110.26C206.692 115.69 197.651 116.572 190.035 111.989C183.198 107.874 179.239 99.3072 180.386 91.1113C181.562 82.7104 187.934 75.8198 196.442 73.7491C208.374 70.8448 220.641 79.4248 221.601 92.44C221.982 97.6115 224.128 99.1048 228.139 100.773C250.53 110.083 272.788 119.715 295.204 128.963C297.271 129.816 300.879 129.693 302.5 128.413C312.607 120.433 323.36 119.996 331.834 127.802C339.904 135.235 341.058 146.994 334.57 155.665C327.448 165.181 316.64 166.782 305.082 160.04C304.398 159.641 303.678 159.303 302.852 158.873C268.78 183.68 234.705 208.424 200.788 233.384C199.174 234.572 198.812 237.631 198.185 239.906C197.927 240.841 198.951 242.161 198.645 243.049C194.617 254.746 203.658 258.91 210.694 264.293C239.865 286.612 268.97 309.018 298.266 331.172C300.309 332.717 304.179 333.704 306.394 332.853C318.45 328.218 328.484 329.97 334.749 338.585C340.61 346.645 340.108 357.233 333.508 364.751C326.968 372.201 316.453 374.081 307.72 369.36C298.285 364.259 294.875 354.362 298.476 341.684C295.637 339.563 292.66 337.339 289.655 335.094C278.766 353.366 287.801 373.38 311.726 383.184C309.683 384.553 308.02 385.666 305.888 387.14Z" fill="#9307FF"/>
<path d="M162.587 343.866C180.067 367.823 197.213 391.306 215.021 415.694C198.212 416.705 182.657 414.869 167.284 410.909C121.128 399.019 85.7006 372.527 60.6972 332.12C59.12 329.571 58.5476 324.652 59.9494 322.275C76.1253 294.849 92.7675 267.698 109.332 240.502C109.703 239.891 110.614 239.609 111.549 238.991C109.739 262.759 117.472 283.046 131.767 301.453C142.363 315.096 152.122 329.388 162.587 343.866Z" fill="#9307FF"/>
<path d="M36.3791 236.207C38.1379 214.029 43.0302 193.408 52.9099 174.227C54.1671 171.786 57.8349 169.085 60.4157 169.055C93.3492 168.671 126.288 168.75 159.226 168.736C159.905 168.736 160.585 169.024 162.707 169.505C138.948 180.364 125.585 199.217 113.61 220.154C94.6365 253.324 74.1913 285.652 53.6312 319.553C40.155 292.855 34.8128 265.649 36.3791 236.207Z" fill="#9307FF"/>
<path d="M179.886 117.302C185.898 120.211 191.299 124.128 197.097 124.846C203.319 125.618 206.513 128.287 209.538 133.142C216.468 144.267 223.849 155.111 231.949 167.443C228.484 166.916 226.768 166.634 225.045 166.397C215.204 165.042 205.372 162.622 195.519 162.535C153.121 162.162 110.718 162.476 68.3159 162.538C65.6951 162.542 63.0743 162.539 58.699 162.539C85.1532 119.111 122.256 93.1502 170.882 80.6475C167.127 94.8752 168.88 107.082 179.886 117.302Z" fill="#9307FF"/>
<path d="M257.208 251.669C257.195 247.615 257.195 244.381 257.195 240.366C274.588 240.366 291.716 240.366 309.699 240.366C309.699 222.79 309.699 205.957 309.699 188.711C315.24 188.711 319.919 188.711 325.231 188.711C325.231 205.698 325.231 222.336 325.231 239.719C342.96 239.719 360.088 239.719 377.676 239.719C377.676 244.93 377.676 249.407 377.676 254.658C360.821 254.658 343.688 254.658 325.455 254.658C325.455 272.176 325.455 288.977 325.455 306.109C319.885 306.109 315.417 306.109 310.225 306.109C310.225 289.278 310.225 272.665 310.225 255.095C294.507 255.095 279.489 255.211 264.476 254.978C262.045 254.941 259.639 253.356 257.208 251.669Z" fill="#9307FF"/>
</svg>
