<svg width="351" height="344" viewBox="0 0 351 344" fill="none" xmlns="http://www.w3.org/2000/svg">
<path d="M8.47152 119.461C44.1993 16.7223 159.727 -29.3674 256.366 19.684C317.503 50.7152 357.715 117.053 349.699 187.501C341.306 261.257 299.377 310.845 229.733 334.774C127.943 369.748 17.7593 301.429 1.71529 194.99C-2.1267 169.501 0.63932 144.5 8.47152 119.461ZM323.32 106.382C288.677 35.6947 214.573 0.265467 137.257 17.4249C48.9419 37.0256 -6.09146 129.209 19.1952 215.183C41.8448 292.191 118.823 340.379 200.399 328.616C305.343 313.483 366.172 204.328 323.32 106.382Z" fill="#9307FF"/>
<path d="M256.024 289.713C236.843 302.399 216.21 309.794 193.996 313.081C189.13 313.802 185.896 313.058 182.693 308.562C164.763 283.398 146.39 258.55 127.123 232.162C158.196 246.469 186.763 245.843 213.952 224.072C205.483 217.53 197.537 211.34 189.534 205.224C181.63 199.183 173.626 193.273 165.755 187.191C162.869 184.961 160.568 184.18 156.773 186.175C148.699 190.42 139.972 188.062 135.02 181.281C130.086 174.524 130.319 165.634 135.597 159.326C141.023 152.84 149.364 151.542 157.792 155.387C159.562 156.194 162.67 156.294 164.113 155.259C191.656 135.495 219.202 115.724 246.217 95.2544C248.976 93.1645 248.35 86.6087 249.304 82.0788C227.712 72.8926 207.226 64.0402 186.561 55.6264C184.767 54.896 181.44 56.5548 179.436 57.9694C172.998 62.5139 165.431 63.2524 159.056 59.4163C153.334 55.9726 150.02 48.8019 150.98 41.9421C151.965 34.9107 157.298 29.1434 164.418 27.4103C174.405 24.9794 184.673 32.1607 185.476 43.0542C185.796 47.3827 187.591 48.6325 190.949 50.0285C209.69 57.821 228.319 65.8828 247.081 73.6235C248.811 74.3371 251.831 74.2343 253.188 73.1629C261.647 66.4836 270.647 66.1178 277.74 72.6512C284.494 78.8729 285.46 88.7152 280.029 95.9724C274.069 103.937 265.022 105.277 255.349 99.6342C254.776 99.3001 254.174 99.0173 253.482 98.6572C224.964 119.42 196.444 140.131 168.056 161.022C166.706 162.016 166.402 164.576 165.877 166.48C165.661 167.264 166.519 168.368 166.263 169.111C162.891 178.901 170.459 182.387 176.347 186.892C200.763 205.573 225.123 224.326 249.643 242.869C251.353 244.162 254.593 244.988 256.446 244.276C266.538 240.396 274.936 241.863 280.18 249.074C285.085 255.82 284.665 264.681 279.141 270.974C273.666 277.21 264.865 278.783 257.557 274.831C249.659 270.562 246.806 262.278 249.82 251.667C247.443 249.892 244.951 248.03 242.436 246.152C233.323 261.445 240.884 278.197 260.909 286.402C259.199 287.548 257.808 288.48 256.024 289.713Z" fill="#9307FF"/>
<path d="M136.083 253.494C150.713 273.545 165.064 293.2 179.969 313.613C165.9 314.458 152.881 312.922 140.014 309.608C101.382 299.656 71.73 277.482 50.8026 243.663C49.4825 241.529 49.0034 237.412 50.1767 235.423C63.7156 212.468 77.6449 189.742 91.5089 166.98C91.82 166.469 92.5818 166.232 93.3645 165.715C91.85 185.609 98.3223 202.589 110.287 217.994C119.155 229.414 127.324 241.376 136.083 253.494Z" fill="#9307FF"/>
<path d="M30.4487 163.384C31.9208 144.822 36.0157 127.563 44.2848 111.508C45.3371 109.465 48.4069 107.205 50.5669 107.18C78.1317 106.858 105.701 106.925 133.269 106.913C133.838 106.912 134.407 107.154 136.183 107.556C116.297 116.645 105.113 132.425 95.0894 149.948C79.2092 177.711 62.0969 204.77 44.8885 233.144C33.6092 210.798 29.1378 188.027 30.4487 163.384Z" fill="#9307FF"/>
<path d="M150.561 63.8634C155.594 66.2979 160.114 69.5766 164.967 70.1779C170.175 70.8233 172.848 73.0577 175.38 77.1209C181.18 86.4322 187.358 95.5088 194.137 105.83C191.238 105.39 189.801 105.153 188.359 104.955C180.122 103.82 171.893 101.795 163.646 101.722C128.16 101.411 92.6688 101.673 57.1793 101.725C54.9858 101.729 52.7922 101.726 49.1301 101.726C71.2719 65.3771 102.326 43.6486 143.025 33.1841C139.883 45.0925 141.35 55.3093 150.561 63.8634Z" fill="#9307FF"/>
<path d="M215.279 176.326C215.268 172.933 215.268 170.226 215.268 166.866C229.826 166.866 244.161 166.866 259.212 166.866C259.212 152.155 259.212 138.066 259.212 123.632C263.85 123.632 267.766 123.632 272.213 123.632C272.213 137.85 272.213 151.775 272.213 166.324C287.052 166.324 301.387 166.324 316.108 166.324C316.108 170.686 316.108 174.433 316.108 178.828C302.001 178.828 287.661 178.828 272.4 178.828C272.4 193.49 272.4 207.553 272.4 221.891C267.738 221.891 263.999 221.891 259.653 221.891C259.653 207.805 259.653 193.9 259.653 179.194C246.497 179.194 233.927 179.291 221.362 179.096C219.327 179.064 217.313 177.739 215.279 176.326Z" fill="#9307FF"/>
</svg>
